<svg xmlns="http://www.w3.org/2000/svg" viewBox="0 0 214.2 230.2" enable-background="new 0 0 214.2 230.2"><path fill="#303030" d="M10 100.2h190v70h-190z"/><path fill="#595A5C" d="M190 15.6h-170c-11 0-20 9-20 20v134.6h50l10-10h130c5.5 0 10-4.5 10-10v-124.6c0-5.6-4.5-10-10-10z"/><path fill="#424143" d="M177.5 44.7h-7.5v-7.5c0-1.4-1.1-2.5-2.5-2.5h-130c-1.4 0-2.5 1.1-2.5 2.5v7.5h-7.5c-1.4 0-2.5 1.1-2.5 2.5v90c0 1.4 1.1 2.5 2.5 2.5h7.5v7.5c0 1.4 1.1 2.5 2.5 2.5h130c1.4 0 2.5-1.1 2.5-2.5v-7.5h7.5c1.4 0 2.5-1.1 2.5-2.5v-90c0-1.4-1.1-2.5-2.5-2.5zm-2.5 90h-7.5v-4.5c0-1.7-1.3-3-3-3h-4c-1.7 0-3 1.3-3 3v4c0 1.7 1.3 3 3 3h4.5v7.5h-125v-7.5h4.5c1.7 0 3-1.3 3-3v-4c0-1.7-1.3-3-3-3h-4c-1.7 0-3 1.3-3 3v4.5h-7.5v-85h7.5v4.5c0 1.7 1.3 3 3 3h4c1.7 0 3-1.3 3-3v-4c0-1.7-1.3-3-3-3h-4.5v-7.5h125v7.5h-4.5c-1.7 0-3 1.3-3 3v4c0 1.7 1.3 3 3 3h4c1.7 0 3-1.3 3-3v-4.5h7.5v85z"/><path fill="#F3BC3E" d="M102.5 73.1c-8.3 0-15.1 6.8-15.1 15.1s6.8 15.1 15.1 15.1 15.1-6.8 15.1-15.1-6.8-15.1-15.1-15.1zm0 25.1c-5.5 0-10.1-4.5-10.1-10.1s4.5-10.1 10.1-10.1 10.1 4.5 10.1 10.1-4.6 10.1-10.1 10.1z"/><path fill="#424143" d="M153.8 85.9l-28.5-14.2c-7.1-3.5-15-5.4-22.9-5.4s-15.8 1.9-22.9 5.4l-28.3 14.2c-.8.4-1.4 1.3-1.4 2.2s.5 1.8 1.4 2.2l28.5 14.2c7.1 3.5 15 5.4 22.9 5.4s15.8-1.9 22.9-5.4l28.5-14.2c.8-.4 1.4-1.3 1.4-2.2s-.7-1.8-1.6-2.2zm-30.7 14.3c-6.4 3.2-13.5 4.9-20.6 4.9s-14.3-1.7-20.6-4.9l-24-12 24-12c6.4-3.2 13.5-4.9 20.6-4.9s14.3 1.7 20.6 4.9l24 12-24 12zM126.5 115l-3.4 1.7c-12.9 6.5-28.3 6.5-41.2 0l-3.4-1.7c-1.2-.6-2.7-.1-3.4 1.1s-.1 2.7 1.1 3.4l3.4 1.7c7.2 3.6 15 5.4 22.9 5.4 7.9 0 15.7-1.8 22.9-5.4l3.4-1.7c1.2-.6 1.7-2.1 1.1-3.4-.7-1.2-2.2-1.7-3.4-1.1zM78.5 61.3l3.4-1.7c12.9-6.5 28.3-6.5 41.2 0l3.4 1.7c.4.2.7.3 1.1.3.9 0 1.8-.5 2.2-1.4.6-1.2.1-2.7-1.1-3.4l-3.4-1.7c-14.3-7.1-31.3-7.1-45.7 0l-3.4 1.7c-1.2.6-1.7 2.1-1.1 3.4.7 1.2 2.2 1.7 3.4 1.1zM10 18.3c-6 3.4-10 9.9-10 17.3v154.6h10v-171.9z"/><path fill="#303030" d="M190 160.2h-160c-16.6 0-30 13.4-30 30s13.4 30 30 30h160c5.5 0 10-4.5 10-10v-60c0 5.5-4.5 10-10 10z"/><path fill="#E7E7E7" d="M30 170.2c-11 0-20 9-20 20s9 20 20 20h150c5.5 0 10-4.5 10-10v-30h-160z"/><path fill="#F3BC3E" d="M40 188.2v41c0 .9.7 1.3 1.4.9l18.1-9.1c.2-.1.6-.1.9 0l18.1 9.1c.8.4 1.4 0 1.4-.9v-41h-39.9zM211.9.8c2.3-1.5 2.9-.9 1.4 1.4l-7.2 10.8c-1.5 2.3-1.5 6 0 8.3l7.2 10.8c1.5 2.3.9 2.9-1.4 1.4l-10.8-7.2c-2.3-1.5-6-1.5-8.3 0l-10.8 7.2c-2.3 1.5-2.9.9-1.4-1.4l7.2-10.8c1.5-2.3 1.5-6 0-8.3l-7.2-10.8c-1.5-2.3-.9-2.9 1.4-1.4l10.8 7.2c2.3 1.5 6 1.5 8.3 0l10.8-7.2z"/><path fill="#BDBEC0" d="M180 170.2h-150c-7.4 0-13.8 4-17.3 10h167.3c5.5 0 10-4.5 10-10v-10c0 5.5-4.5 10-10 10z"/></svg>
